<svg width="74" height="25" viewBox="0 0 74 25" fill="none" xmlns="http://www.w3.org/2000/svg">
<path d="M70.1405 1.78946C70.1405 1.07966 70.7082 0.503661 71.4086 0.503661H72.2545C72.591 0.503661 72.9137 0.639129 73.1516 0.880263C73.3895 1.1214 73.5232 1.44845 73.5232 1.78946C73.5232 2.13048 73.3895 2.45752 73.1516 2.69866C72.9137 2.93979 72.591 3.07526 72.2545 3.07526H71.4086C71.242 3.07526 71.0771 3.042 70.9232 2.97737C70.7693 2.91275 70.6295 2.81803 70.5117 2.69862C70.394 2.57922 70.3006 2.43747 70.2369 2.28147C70.1732 2.12547 70.1404 1.95829 70.1405 1.78946ZM34.6258 9.07406C34.6258 13.8069 30.8406 17.6439 26.1703 17.6439C21.5006 17.6439 17.7148 13.8069 17.7148 9.07406C17.7148 4.34006 21.5006 0.504261 26.1703 0.504261C30.8406 0.504261 34.6258 4.34006 34.6258 9.07406ZM16.0655 9.03146C16.5331 9.03146 16.9156 9.41546 16.8688 9.88706C16.709 11.501 16.1005 13.0357 15.1142 14.313C14.1278 15.5904 12.804 16.5577 11.2967 17.1027C9.7894 17.6478 8.16041 17.748 6.59908 17.3919C5.03776 17.0358 3.60821 16.2379 2.47657 15.091C1.34493 13.9441 0.557685 12.4952 0.206315 10.9128C-0.145055 9.33033 -0.0461161 7.67934 0.491633 6.15164C1.02938 4.62395 1.98386 3.28229 3.24413 2.28261C4.50441 1.28292 6.01873 0.666246 7.61111 0.504261C8.07583 0.456261 8.4553 0.845061 8.4553 1.31786V8.17406C8.4553 8.64806 8.83418 9.03146 9.30127 9.03146H16.0655ZM46.4641 19.3581C47.1368 19.3581 47.7821 19.6289 48.2578 20.1111C48.7335 20.5932 49.0008 21.2472 49.0008 21.9291C49.0008 22.6109 48.7335 23.2649 48.2578 23.747C47.7821 24.2292 47.1368 24.5001 46.4641 24.5001H42.2366C41.5638 24.5001 40.9186 24.2292 40.4429 23.747C39.9671 23.2649 39.6999 22.6109 39.6999 21.9291C39.6999 21.2472 39.9671 20.5932 40.4429 20.1111C40.9186 19.6289 41.5638 19.3581 42.2366 19.3581H46.4641ZM43.9273 17.6439C48.5976 17.6439 52.3835 13.8069 52.3835 9.07406C52.3855 7.62023 52.0209 6.18999 51.3244 4.91906L52.7215 3.50306C52.8824 3.33988 53.0101 3.14617 53.0971 2.933C53.1842 2.71982 53.229 2.49135 53.2289 2.26064C53.2289 2.02992 53.184 1.80147 53.0968 1.58834C53.0097 1.37521 52.8819 1.18156 52.7209 1.01846C52.5599 0.855359 52.3688 0.725995 52.1585 0.637755C51.9481 0.549515 51.7227 0.504127 51.4951 0.504183C51.2674 0.504239 51.042 0.549737 50.8317 0.63808C50.6214 0.726423 50.4304 0.85588 50.2694 1.01906L49.0499 2.25506C47.5787 1.1162 45.778 0.500642 43.9268 0.503661C39.2576 0.504261 35.4724 4.34006 35.4724 9.07406C35.4724 13.8069 39.2577 17.6439 43.9273 17.6439ZM70.1405 9.07406C70.1405 13.8069 66.3547 17.6439 61.6844 17.6439C57.0147 17.6439 53.2289 13.8069 53.2289 9.07406C53.2289 4.34006 57.0147 0.504261 61.6844 0.504261C66.3547 0.504261 70.1405 4.34066 70.1405 9.07406Z" fill="url(#paint0_linear_3460_6475)"/>
<defs>
<linearGradient id="paint0_linear_3460_6475" x1="-0.000237767" y1="10.1001" x2="70.4478" y2="10.1001" gradientUnits="userSpaceOnUse">
<stop stop-color="#64C2DB"/>
<stop offset="0.307" stop-color="#7476ED"/>
<stop offset="0.604" stop-color="#C994DF"/>
<stop offset="1" stop-color="#E56F8C"/>
</linearGradient>
</defs>
</svg>
