<svg width="21" height="21" viewBox="0 0 21 21" fill="none" xmlns="http://www.w3.org/2000/svg">
<path d="M8.10482 20.9166L7.58398 17.6354C7.25412 17.5139 6.9069 17.3489 6.54232 17.1406C6.17773 16.9323 5.85655 16.7153 5.57878 16.4896L2.50586 17.8958L0.0839844 13.625L2.89648 11.5677C2.86176 11.4114 2.84006 11.2335 2.83138 11.0338C2.8227 10.8342 2.81836 10.6562 2.81836 10.5C2.81836 10.3437 2.8227 10.1658 2.83138 9.96613C2.84006 9.76647 2.86176 9.58852 2.89648 9.43227L0.0839844 7.37498L2.50586 3.10415L5.57878 4.5104C5.85655 4.2847 6.17773 4.06769 6.54232 3.85935C6.9069 3.65102 7.25412 3.49477 7.58398 3.3906L8.10482 0.083313H12.8965L13.4173 3.36456C13.7472 3.48609 14.0987 3.64668 14.472 3.84633C14.8453 4.04599 15.1621 4.26734 15.4225 4.5104L18.4954 3.10415L20.9173 7.37498L18.1048 9.38019C18.1395 9.5538 18.1612 9.74043 18.1699 9.94008C18.1786 10.1397 18.1829 10.3264 18.1829 10.5C18.1829 10.6736 18.1786 10.8559 18.1699 11.0469C18.1612 11.2378 18.1395 11.4201 18.1048 11.5937L20.9173 13.625L18.4954 17.8958L15.4225 16.4896C15.1447 16.7153 14.8279 16.9366 14.472 17.1536C14.1161 17.3706 13.7645 17.5312 13.4173 17.6354L12.8965 20.9166H8.10482ZM10.5007 13.8854C11.4382 13.8854 12.2368 13.5555 12.8965 12.8958C13.5562 12.2361 13.8861 11.4375 13.8861 10.5C13.8861 9.56248 13.5562 8.76387 12.8965 8.10415C12.2368 7.44442 11.4382 7.11456 10.5007 7.11456C9.56315 7.11456 8.76454 7.44442 8.10482 8.10415C7.4451 8.76387 7.11523 9.56248 7.11523 10.5C7.11523 11.4375 7.4451 12.2361 8.10482 12.8958C8.76454 13.5555 9.56315 13.8854 10.5007 13.8854ZM10.5007 12.3229C9.99718 12.3229 9.56749 12.1449 9.21159 11.789C8.85569 11.4331 8.67773 11.0035 8.67773 10.5C8.67773 9.99651 8.85569 9.56682 9.21159 9.21092C9.56749 8.85501 9.99718 8.67706 10.5007 8.67706C11.0041 8.67706 11.4338 8.85501 11.7897 9.21092C12.1456 9.56682 12.3236 9.99651 12.3236 10.5C12.3236 11.0035 12.1456 11.4331 11.7897 11.789C11.4338 12.1449 11.0041 12.3229 10.5007 12.3229ZM9.35482 19.3541H11.6465L12.0111 16.4375C12.584 16.2986 13.1265 16.0816 13.6387 15.7864C14.1508 15.4913 14.6152 15.1354 15.0319 14.7187L17.7923 15.9166L18.834 14.0416L16.3861 12.2448C16.4555 11.9496 16.5119 11.6588 16.5553 11.3724C16.5987 11.0859 16.6204 10.7951 16.6204 10.5C16.6204 10.2048 16.6031 9.91404 16.5684 9.62758C16.5336 9.34113 16.4729 9.05033 16.3861 8.75519L18.834 6.95831L17.7923 5.08331L15.0319 6.28123C14.6326 5.82984 14.1812 5.45224 13.6777 5.14842C13.1743 4.8446 12.6187 4.64929 12.0111 4.56248L11.6465 1.64581H9.35482L8.99023 4.56248C8.39996 4.68401 7.84874 4.89234 7.33659 5.18748C6.82444 5.48262 6.36871 5.8472 5.9694 6.28123L3.20898 5.08331L2.16732 6.95831L4.61523 8.75519C4.54579 9.05033 4.48937 9.34113 4.44596 9.62758C4.40256 9.91404 4.38086 10.2048 4.38086 10.5C4.38086 10.7951 4.40256 11.0859 4.44596 11.3724C4.48937 11.6588 4.54579 11.9496 4.61523 12.2448L2.16732 14.0416L3.20898 15.9166L5.9694 14.7187C6.38607 15.1354 6.85048 15.4913 7.36263 15.7864C7.87478 16.0816 8.41732 16.2986 8.99023 16.4375L9.35482 19.3541Z" fill="#4E4040"/>
</svg>
